<?xml version="1.0" standalone="no"?>
<!DOCTYPE svg PUBLIC "-//W3C//DTD SVG 20010904//EN"
 "http://www.w3.org/TR/2001/REC-SVG-20010904/DTD/svg10.dtd">
<svg version="1.0" xmlns="http://www.w3.org/2000/svg"
 width="64.000000pt" height="64.000000pt" viewBox="0 0 64.000000 64.000000"
 preserveAspectRatio="xMidYMid meet">

<g transform="translate(0.000000,64.000000) scale(0.100000,-0.100000)"
fill="#000000" stroke="none">
<path d="M28 449 c-16 -9 -18 -29 -18 -194 l0 -185 211 0 c137 0 208 3 204 10
-3 6 -19 10 -36 10 -25 0 -29 4 -29 28 0 46 -15 52 -122 52 -59 0 -98 4 -98
10 0 6 35 10 86 10 54 0 83 4 79 10 -3 6 -42 10 -86 10 -46 0 -79 4 -79 10 0
6 29 10 66 10 41 0 63 4 59 10 -3 6 -33 10 -66 10 -33 0 -59 4 -59 10 0 6 21
10 46 10 27 0 43 4 39 10 -3 6 -28 10 -56 10 -27 0 -49 5 -49 10 0 6 16 10 36
10 21 0 33 4 29 10 -3 6 -22 10 -41 10 -39 0 -54 -21 -36 -51 7 -10 12 -57 12
-104 l0 -85 -45 0 -45 0 0 173 c0 121 4 177 12 185 15 15 9 15 -14 1z m312
-309 c0 -6 -40 -10 -100 -10 -60 0 -100 4 -100 10 0 6 40 10 100 10 60 0 100
-4 100 -10z m0 -40 c0 -6 -40 -10 -100 -10 -60 0 -100 4 -100 10 0 6 40 10
100 10 60 0 100 -4 100 -10z"/>
</g>
</svg>
